/* XPM */
static char *result[] = {
/* columns rows colors chars-per-pixel */
"64 64 172 2 ",
"   c #17151A",
".  c #1D1719",
"X  c #17181A",
"o  c #1C1B19",
"O  c #2A1B17",
"+  c #241618",
"@  c #231C19",
"#  c #2E1B19",
"$  c #301E17",
"%  c #361A19",
"&  c #3A1B19",
"*  c #1C241C",
"=  c #162F1F",
"-  c #1F2B1B",
";  c #1C331D",
":  c #1B3D1A",
">  c #21241C",
",  c #2D2018",
"<  c #20281C",
"1  c #352217",
"2  c #3E2316",
"3  c #1D2C21",
"4  c #1B3522",
"5  c #143D23",
"6  c #1A3B22",
"7  c #183C28",
"8  c #133622",
"9  c #45171A",
"0  c #48171A",
"q  c #46191A",
"w  c #4A191A",
"e  c #52161A",
"r  c #5D151A",
"t  c #54191A",
"y  c #591A19",
"u  c #760E1C",
"i  c #61161A",
"p  c #6F141A",
"a  c #63181A",
"s  c #71141A",
"d  c #7A141A",
"f  c #7D1918",
"g  c #412516",
"h  c #462814",
"j  c #4C2A14",
"k  c #5E2216",
"l  c #532A13",
"z  c #5A2D12",
"x  c #5F3012",
"c  c #72360F",
"v  c #78360E",
"b  c #7E3A0E",
"n  c #612216",
"m  c #662A14",
"M  c #6B2D12",
"N  c #6C3310",
"B  c #633211",
"V  c #703510",
"C  c #19441B",
"Z  c #174A1C",
"A  c #18491B",
"S  c #15541C",
"D  c #0E6C1D",
"F  c #11641D",
"G  c #0D701F",
"H  c #0B7A1E",
"J  c #0F4B27",
"K  c #174425",
"L  c #184224",
"P  c #154B26",
"I  c #15452A",
"U  c #144E29",
"Y  c #0E5529",
"T  c #0F5D2B",
"R  c #125B24",
"E  c #125429",
"W  c #105A2A",
"Q  c #135326",
"!  c #0D652D",
"~  c #0C6A2D",
"^  c #106421",
"/  c #0B7324",
"(  c #0A7C24",
")  c #09742D",
"_  c #077E2A",
"`  c #097B2A",
"'  c #990E1C",
"]  c #83151A",
"[  c #8E131A",
"{  c #811919",
"}  c #9D121B",
"|  c #991919",
" . c #AD0E1B",
".. c #B50F1B",
"X. c #A61B17",
"o. c #A4141A",
"O. c #AE101B",
"+. c #A41B18",
"@. c #AF1C18",
"#. c #BB1D17",
"$. c #B4121A",
"%. c #BB151A",
"&. c #B41C18",
"*. c #BC1919",
"=. c #81370F",
"-. c #82390E",
";. c #9C340F",
":. c #993F0A",
">. c #8D2614",
",. c #902614",
"<. c #973310",
"1. c #A23F0C",
"2. c #B72A12",
"3. c #B92C12",
"4. c #C41E17",
"5. c #C81E17",
"6. c #C0161A",
"7. c #C21C18",
"8. c #C91C18",
"9. c #C73C0C",
"0. c #CC3F0B",
"q. c #D3330F",
"w. c #C42216",
"e. c #CC2316",
"r. c #CE2B12",
"t. c #D22616",
"y. c #D42A14",
"u. c #DA2D14",
"i. c #D43110",
"p. c #DD3112",
"a. c #E1370E",
"s. c #E43C0E",
"d. c #E93C0E",
"f. c #E13511",
"g. c #E23810",
"h. c #9D430A",
"j. c #A3400C",
"k. c #A94709",
"l. c #AD4908",
"z. c #B24609",
"x. c #C64E06",
"c. c #C54609",
"v. c #C74809",
"b. c #D44C07",
"n. c #D6450A",
"m. c #D8460A",
"M. c #DC5305",
"N. c #E44C07",
"B. c #EF4E07",
"V. c #E5420B",
"C. c #EA420B",
"Z. c #E44B08",
"A. c #EC4909",
"S. c #F14F07",
"D. c #F1440B",
"F. c #F14A08",
"G. c #EE5006",
"H. c #E35902",
"J. c #F25305",
"K. c #FA5205",
"L. c #F65903",
"P. c #FB5C01",
"I. c #FD6300",
"U. c #07871E",
"Y. c #068D1F",
"T. c #078525",
"R. c #088420",
"E. c #06852B",
"W. c #05882B",
"Q. c #039325",
"!. c #029A22",
"~. c #509B66",
/* pixels */
"~.~.~.~.~.~.~.~.~.~.~.~.~.~.~.~.~.~.~.~.~.~.~.~.~.~.~.~.~.~.~.~.~.~.~.~.~.~.~.~.~.~.~.~.~.~.~.~.~.~.~.~.~.~.~.~.~.~.~.~.~.~.~.~.",
"~.~.~.~.~.~.~.~.~.~.~.~.~.~.~.~.~.~.~.~.~.~.~.~.~.~.~.~.~.~.~.~.~.~.~.~.~.~.~.~.~.~.~.~.~.~.~.~.~.~.~.~.~.~.~.~.~.~.~.~.~.~.~.~.",
"~.~.~.~.~.~.~.~.~.~.~.~.~.~.~.~.~.~.~.~.~.~.~.~.~.~.~.~.~.~.~.~.~.~.~.~.~.~.~.~.~.~.~.~.~.~.~.~.~.~.~.~.~.~.~.~.~.~.~.~.~.~.~.~.",
"~.~.~.~.~.~.~.~.~.~.~.~.~.~.~.~.~.~.~.~.~.~.~.~.~.~.~.~.~.~.~.~.~.~.~.~.~.~.~.~.~.~.~.~.~.~.~.~.~.~.~.~.~.~.~.~.~.~.~.~.~.~.~.~.",
"~.~.~.~.~.~.~.~.~.~.~.~.~.~.~.~.~.~.~.~.~.~.~.~.~.~.~.~.~.~.~.~.~.~.~.~.~.~.~.~.~.~.~.~.~.~.~.~.~.~.~.~.~.~.~.~.~.~.~.~.~.~.~.~.",
"~.~.~.~.~.~.~.~.~.~.~.~.~.~.~.~.~.~.~.~.~.~.~.~.~.~.~.~.~.~.~.~.~.~.~.~.~.~.~.~.~.~.~.~.~.~.~.~.~.~.~.~.~.~.~.~.~.~.~.~.~.~.~.~.",
"~.~.~.~.~.~.~.~.~.~.~.~.~.~.~.~.~.~.~.~.~.~.~.~.~.~.~.~.~.~.~.~.~.~.~.~.~.~.~.~.~.~.~.~.~.~.~.~.~.~.~.~.~.~.~.~.~.~.~.~.~.~.~.~.",
"~.~.~.~.~.~.~.~.~.~.~.~.~.~.~.~.~.~.~.~.~.~.~.~.~.~.~.~.~.~.~.~.~.~.~.~.~.~.~.~.~.~.~.~.~.~.~.~.~.~.~.~.~.~.~.~.~.~.~.~.~.~.~.~.",
"~.~.~.~.~.~.~.~.~.~.~.~.~.~.~.~.~.+ + + + + + ~.~.~.~.~.~.~.~.~.~.~.~.~.~.~.~.~.~.~.~.~.~.~.~.~.~.~.~.~.~.~.~.~.~.~.~.~.~.~.~.~.",
"~.~.~.~.~.~.~.~.~.~.~.~.~.~.~.~.@ > @ @ @ + , @ ~.~.~.~.~.~.~.~.~.~.~.~.~.~.~.~.~.~.~.~.~.~.~.~.~.~.~.~.~.~.~.~.~.~.~.~.~.~.~.~.",
"~.~.~.~.~.~.~.~.~.~.~.~.~.~.~.~.< - ; < < ; < < ~.~.~.~.~.~.~.~.~.~.~.~.~.~.~.~.~.~.~.~.~.~.~.~.~.~.~.~.~.~.~.~.~.~.~.~.~.~.~.~.",
"~.~.~.~.~.~.~.~.~.~.~.~.~.~.~.; : A A Z Z Z A C ; ~.~.~.~.~.~.~.~.~.~.~.~.~.~.~.~.~.~.~.~.~.~.~.~.~.~.~.~.~.~.~.~.~.~.~.~.~.~.~.",
"~.~.~.~.~.~.~.~.~.~.~.~.~.+ < : S F F D D D F S C < + ~.~.~.~.~.~.~.~.~.~.~.~.~.~.~.~.~.~.~.~.~.~.~.~.~.~.~.~.~.~.~.~.~.~.~.~.~.",
"~.~.~.~.~.~.~.~.~.~.~.~.+ @ < A F H U.Y.Y.U.H F A < @ + ~.~.~.~.~.~.~.~.~.~.~.~.~.~.~.~.~.~.~.~.~.~.~.~.~.~.~.~.~.~.~.~.~.~.~.~.",
"~.~.~.~.~.~.~.~.~.~.~.~.- - : S D R.Q.!.!.Q.R.^ Z : - > ~.~.~.~.~.~.~.~.~.~.~.~.~.~.~.~.~.~.~.~.~.~.~.~.~.~.~.~.~.~.~.~.~.~.~.~.",
"~.~.~.~.~.~.~.~.~.~.~.; : A S F / T.Q.!.!.Q.T./ R K 4 ; - ~.~.~.~.~.~.~.~.~.~.~.~.~.~.~.~.~.~.~.~.~.~.~.~.~.~.~.~.~.~.~.~.~.~.~.",
"~.~.~.~.~.~.~.~.~.@ - : S F G ( ( E.E.E.W.E.E.) ! R U L 4 < @ ~.~.~.~.~.~.+ + + + + + + @ + @ ~.~.~.~.~.~.~.~.~.~.~.~.~.~.~.~.~.",
"~.~.~.~.~.~.~.~.+ @ ; A F H R.T.( ) ) ) ) ) ) ~ ~ ! W P 4 < > + ~.~.~.~.@ > @ @ > @ @ @ @ @ @ + ~.~.~.~.~.~.~.~.~.~.~.~.~.~.~.~.",
"~.~.~.~.~.~.~.~.+ @ < A F H U.( / ~ ! ! ! ! ! ! ! ! W P ; > @ + ~.~.~.~.> < - * < < * > 3 @ 3 @ ~.~.~.~.~.~.~.~.~.~.~.~.~.~.~.~.",
"~.~.~.~.~.~.~.~.~.@ < C S D F F R E Q U U U U E E Q P L ; > @ + + ~.~.; 6 6 6 6 6 6 6 4 4 3 3 3 > ~.~.~.~.~.~.~.~.~.~.~.~.~.~.~.",
"~.~.~.~.~.~.~.~.~.~.~.: A Z A A C 4 4 4 4 4 6 6 6 6 : 3 * > > + + , - 4 K U E E E Q U P I 7 4 3 3 > @ ~.~.~.~.~.~.~.~.~.~.~.~.~.",
"~.~.~.~.~.~.~.~.~.~.~.~.< - - - - - - - < < < < - < > > > @ @ @ + @ * 6 P T ! ! ~ ! W W U I 7 3 3 @ @ @ ~.~.~.~.~.~.~.~.~.~.~.~.",
"~.~.~.~.~.~.~.~.~.~.~.~.@ @ @ @ @ @ @ @ @ > @ @ @ o @ @ @ @ @ + + @ * : U T T ~ ~ T T W U I 7 3 3 @ @ + ~.~.~.~.~.~.~.~.~.~.~.~.",
"~.~.~.~.~.~.~.~.~.~.~.~.~.+ + + + + + + + + + + + . . . @ o @ o o o * 3 5 J Y Y Y W U U I 7 4 3 3 @ @ ~.~.~.~.~.~.~.~.~.~.~.~.~.",
"~.~.~.~.~.~.~.~.~.~.~.~.~.~.~.~.~.~.~.~.~.~.~.+ o . o . o @ o @ @ * o * 8 8 8 5 7 5 6 6 4 3 3 3 < ~.~.~.~.~.~.~.~.~.~.~.~.~.~.~.",
"~.~.~.~.~.~.~.~.~.~.~.~.~.~.~.~.~.~.~.~.~.~.~.~.@ @ @ + @ @ @ @ @ + * , < < < < < < < > > > > > ~.~.~.~.~.~.~.~.~.~.~.~.~.~.~.~.",
"~.~.~.~.~.~.~.~.~.~.~.~.~.~.~.~.~.~.~.~.~.~.~.~.g g g 2 & % % % % % % & 2 g 2 1 , @ @ @ + @ @ @ ~.~.~.~.~.~.~.~.~.~.~.~.~.~.~.~.",
"~.~.~.~.~.~.~.~.~.~.~.~.~.~.~.~.~.~.~.~.~.~.~.j B N N m n y e e e e y n M N M l 2 O . . + @ @ ~.~.~.~.~.~.~.~.~.~.~.~.~.~.~.~.~.",
"~.~.~.~.~.~.~.~.~.~.~.~.~.~.~.~.~.~.~.~.~.X 1 B -.j.j.;.,.] d u u d { ,.;.1.:.v j $ .     ~.~.~.~.~.~.~.~.~.~.~.~.~.~.~.~.~.~.~.",
"~.~.~.~.~.~.~.~.~.~.~.~.~.~.~.~.~.~.~.~.X , g N h.x.b.v.3.X.} ' ' } X.3.0.b.x.:.N g @ . ~.~.~.~.~.~.~.~.~.~.~.~.~.~.~.~.~.~.~.~.",
"~.~.~.~.~.~.~.~.~.~.~.~.~.~.~.~.~.~.~.~.1 2 z -.z.M.G.V.i.w.#.&.$.#.w.q.V.B.M.z.-.z g 1 ~.~.~.~.~.~.~.~.~.~.~.~.~.~.~.~.~.~.~.~.",
"~.~.~.~.~.~.~.~.~.~.~.~.~.~.~.~.~.~.~.h z N -.h.v.N.S.C.s.i.r.r.r.r.q.s.C.F.N.v.j.-.N z j ~.~.~.~.~.~.~.~.~.~.~.~.~.~.~.~.~.~.~.",
"~.~.~.~.~.~.~.~.~.~.~.~.~.~.~.~.~.X 1 z b h.z.c.m.V.C.C.V.V.V.m.V.V.V.V.C.C.V.m.v.z.j.-.x 1 X ~.~.~.~.~.~.~.~.~.~.~.~.~.~.~.~.~.",
"~.~.~.~.~.~.~.~.~.~.~.~.~.~.~.~.X @ g N h.v.M.Z.V.s.s.s.A.J.J.G.L.G.G.A.C.s.s.V.Z.M.x.j.N 2 @ X ~.~.~.~.~.~.~.~.~.~.~.~.~.~.~.~.",
"~.~.~.~.~.~.~.~.~.~.~.~.~.~.~.~.1 g z -.l.M.J.F.C.f.g.C.B.L.I.I.I.I.L.B.V.f.f.d.F.J.M.l.-.z g 1 ~.~.~.~.~.~.~.~.~.~.~.~.~.~.~.~.",
"~.~.~.~.~.~.~.~.~.~.~.~.~.~.~.j z N -.;.c.Z.F.D.g.f.f.s.B.P.I.I.I.I.L.G.C.f.f.d.D.F.Z.v.h.-.N z j ~.~.~.~.~.~.~.~.~.~.~.~.~.~.~.",
"~.~.~.~.~.~.~.~.~.~.~.~.~.@ 2 x -.h.z.c.n.V.C.d.f.p.f.d.J.L.I.I.I.I.L.S.C.f.f.f.d.d.V.m.c.z.h.-.B 2 @ ~.~.~.~.~.~.~.~.~.~.~.~.~.",
"~.~.~.~.~.~.~.~.~.~.~.~.X @ g N h.x.M.Z.V.s.p.f.p.f.f.C.B.L.I.I.I.I.L.B.V.f.u.f.f.f.g.V.Z.M.x.h.N 2 @ X ~.~.~.~.~.~.~.~.~.~.~.~.",
"~.~.~.~.~.~.~.~.~.~.~.~.X @ g V k.M.L.K.D.s.f.f.u.f.f.s.A.K.L.L.L.L.J.A.s.p.u.u.u.u.g.C.K.L.M.k.V g , X ~.~.~.~.~.~.~.~.~.~.~.~.",
"~.~.~.~.~.~.~.~.~.~.~.~.X @ g V l.H.P.P.K.A.s.g.f.f.g.g.C.A.J.S.J.B.A.V.i.t.e.e.y.u.f.D.K.P.H.l.V g o X ~.~.~.~.~.~.~.~.~.~.~.~.",
"~.~.~.~.~.~.~.~.~.~.~.~.X @ g V l.H.I.I.P.F.A.C.g.g.p.g.g.C.V.A.A.C.g.i.e.w.w.w.t.y.f.D.K.P.H.l.V g > X ~.~.~.~.~.~.~.~.~.~.~.~.",
"~.~.~.~.~.~.~.~.~.~.~.~.X @ g N k.M.L.I.P.P.L.A.V.p.p.p.p.f.g.f.f.f.p.y.w.*.*.*.e.u.f.D.K.L.M.k.V g O X ~.~.~.~.~.~.~.~.~.~.~.~.",
"~.~.~.~.~.~.~.~.~.~.~.~.o @ g N j.b.J.L.P.L.J.C.V.p.y.y.y.u.u.p.p.p.y.e.7.*.%.7.e.u.f.C.S.B.b.j.N g @ X ~.~.~.~.~.~.~.~.~.~.~.~.",
"~.~.~.~.~.~.~.~.~.~.~.~.X @ 2 m <.9.V.S.S.S.A.V.p.y.e.e.e.e.e.t.y.p.y.y.e.7.7.e.t.u.f.g.V.g.9.<.m 2 @ X ~.~.~.~.~.~.~.~.~.~.~.~.",
"~.~.~.~.~.~.~.~.~.~.~.~.o @ & y >.2.y.a.d.V.s.p.y.w.7.*.6.#.7.e.t.u.u.u.t.e.e.t.u.u.p.p.p.y.2.>.k & @ o ~.~.~.~.~.~.~.~.~.~.~.~.",
"~.~.~.~.~.~.~.~.~.~.~.~.o @ & y f o.2.t.y.p.p.y.w.*.$.$.$.$.*.4.t.y.u.u.u.u.u.u.u.p.u.t.8.2.+.f y % @ o ~.~.~.~.~.~.~.~.~.~.~.~.",
"~.~.~.~.~.~.~.~.~.~.~.~.* + % w s [ o.&.w.e.y.e.*.$. . . .$.$.7.e.y.p.f.p.u.p.u.u.u.t.w.*.o.[ p e % @ o ~.~.~.~.~.~.~.~.~.~.~.~.",
"~.~.~.~.~.~.~.~.~.~.~.~.~.@ % 0 r s d | 2.4.e.4.%.$. . . . .$.#.e.u.p.f.f.f.f.u.u.t.w.&.| ] p r 0 $ @ ~.~.~.~.~.~.~.~.~.~.~.~.~.",
"~.~.~.~.~.~.~.~.~.~.~.~.~.~.~.% q e i d | &.7.6.$... . . . .$.7.t.u.f.f.f.f.p.u.t.4.&.| d i e q & ~.~.~.~.~.~.~.~.~.~.~.~.~.~.~.",
"~.~.~.~.~.~.~.~.~.~.~.~.~.~.~.~.# & q a ] o.$.$.$...O. . .O.$.#.8.u.u.f.f.u.u.t.8.*.o.] a q % # ~.~.~.~.~.~.~.~.~.~.~.~.~.~.~.~.",
"~.~.~.~.~.~.~.~.~.~.~.~.~.~.~.~.o @ % e s [ } o. .O.O... ...$.*.8.y.t.u.u.u.e.w.&.o.[ p e % @ o ~.~.~.~.~.~.~.~.~.~.~.~.~.~.~.~.",
"~.~.~.~.~.~.~.~.~.~.~.~.~.~.~.~.~.o # q r s ] [ } O.O.....$.%.%.8.e.t.t.t.e.7.2.| ] p r q # o ~.~.~.~.~.~.~.~.~.~.~.~.~.~.~.~.~.",
"~.~.~.~.~.~.~.~.~.~.~.~.~.~.~.~.~.~.~.% q e r d [ o.$.......$.%.6.6.7.8.8.7.&.| f a e 9 & ~.~.~.~.~.~.~.~.~.~.~.~.~.~.~.~.~.~.~.",
"~.~.~.~.~.~.~.~.~.~.~.~.~.~.~.~.~.~.~.~.# % q r ] ' O...O. .O.$.$.$.$.%.%.$.o.] a q % # ~.~.~.~.~.~.~.~.~.~.~.~.~.~.~.~.~.~.~.~.",
"~.~.~.~.~.~.~.~.~.~.~.~.~.~.~.~.~.~.~.~.o @ % y s [ } o.} } } } } } } } } } [ s t % @ X ~.~.~.~.~.~.~.~.~.~.~.~.~.~.~.~.~.~.~.~.",
"~.~.~.~.~.~.~.~.~.~.~.~.~.~.~.~.~.~.~.~.~.* # w r s d d d d d d d d d d d d p r w # * ~.~.~.~.~.~.~.~.~.~.~.~.~.~.~.~.~.~.~.~.~.",
"~.~.~.~.~.~.~.~.~.~.~.~.~.~.~.~.~.~.~.~.~.~.~.& w e t t t t t t e e y e e e e w & ~.~.~.~.~.~.~.~.~.~.~.~.~.~.~.~.~.~.~.~.~.~.~.",
"~.~.~.~.~.~.~.~.~.~.~.~.~.~.~.~.~.~.~.~.~.~.~.~.$ % & % % % % % % % % % % % % % ~.~.~.~.~.~.~.~.~.~.~.~.~.~.~.~.~.~.~.~.~.~.~.~.",
"~.~.~.~.~.~.~.~.~.~.~.~.~.~.~.~.~.~.~.~.~.~.~.~.@ @ + @ @ @ + @ @ @ @ @ @ @ @ @ ~.~.~.~.~.~.~.~.~.~.~.~.~.~.~.~.~.~.~.~.~.~.~.~.",
"~.~.~.~.~.~.~.~.~.~.~.~.~.~.~.~.~.~.~.~.~.~.~.~.~.o * o o o * o X * o o o * X ~.~.~.~.~.~.~.~.~.~.~.~.~.~.~.~.~.~.~.~.~.~.~.~.~.",
"~.~.~.~.~.~.~.~.~.~.~.~.~.~.~.~.~.~.~.~.~.~.~.~.~.~.~.~.~.~.~.~.~.~.~.~.~.~.~.~.~.~.~.~.~.~.~.~.~.~.~.~.~.~.~.~.~.~.~.~.~.~.~.~.",
"~.~.~.~.~.~.~.~.~.~.~.~.~.~.~.~.~.~.~.~.~.~.~.~.~.~.~.~.~.~.~.~.~.~.~.~.~.~.~.~.~.~.~.~.~.~.~.~.~.~.~.~.~.~.~.~.~.~.~.~.~.~.~.~.",
"~.~.~.~.~.~.~.~.~.~.~.~.~.~.~.~.~.~.~.~.~.~.~.~.~.~.~.~.~.~.~.~.~.~.~.~.~.~.~.~.~.~.~.~.~.~.~.~.~.~.~.~.~.~.~.~.~.~.~.~.~.~.~.~.",
"~.~.~.~.~.~.~.~.~.~.~.~.~.~.~.~.~.~.~.~.~.~.~.~.~.~.~.~.~.~.~.~.~.~.~.~.~.~.~.~.~.~.~.~.~.~.~.~.~.~.~.~.~.~.~.~.~.~.~.~.~.~.~.~."
};
