/* XPM */
static char *result[] = {
/* columns rows colors chars-per-pixel */
"64 64 45 1 ",
"  c #C59268",
". c #C59368",
"X c #C69368",
"o c #C69369",
"O c #C69469",
"+ c #C69569",
"@ c #C6956A",
"# c #C7956A",
"$ c #C7966A",
"% c #C8986C",
"& c #C8996C",
"* c #C8996D",
"= c #C89A6D",
"- c #C99A6D",
"; c #C99B6D",
": c #C99B6E",
"> c #C99C6E",
", c #CA9E6F",
"< c #CA9E70",
"1 c #CA9F70",
"2 c #CBA071",
"3 c #CBA171",
"4 c #CBA172",
"5 c #CBA272",
"6 c #CDA574",
"7 c #CDA674",
"8 c #CDA675",
"9 c #CDA775",
"0 c #CFAB78",
"q c #CFAC78",
"w c #CFAC79",
"e c #D0AD79",
"r c #D0AE79",
"t c #D0AE7A",
"y c #D0AF7A",
"u c #D1B17C",
"i c #D1B27C",
"p c #D2B27C",
"a c #D2B27D",
"s c #D2B37D",
"d c #D2B47D",
"f c #D2B47E",
"g c #D3B47E",
"h c #D3B57E",
"j c #509B66",
/* pixels */
"jjjjjjjjjjjjjjjjjjjjjjjjjjssddssssssssjjjjjjjjjjjjjjjjjjjjjjjjjj",
"jjjjjjjjjjjjjjjjjjjjjjjjjjuireuddsssssjjjjjjjjjjjjjjjjjjjjjjjjjj",
"jjjjjjjjjjjjjjjjjjjjOOOoX,tt43tffdddssssssssjjjjjjjjjjjjjjjjjjjj",
"jjjjjjjjjjjjjjjjjjjjOOOOo=88&&6wq00eiddsssssjjjjjjjjjjjjjjjjjjjj",
"jjjjjjjjjjjjjjjjOOOOOOOOO$==#@*>>:;4tgfdssssssssjjjjjjjjjjjjjjjj",
"jjjjjjjjjjjjjjjjOOOOOOOOOOooOOoooX.&7qqeiddsssssjjjjjjjjjjjjjjjj",
"jjjjjjjjjjjjjjOOOOOOOOOOOOOOOOOOOoo#=::4tgfdssssssjjjjjjjjjjjjjj",
"jjjjjjjjjjjjjjOOOOOOOOOOOOOOOOOOOOOOoX.&7qqeidssssjjjjjjjjjjjjjj",
"jjjjjjjjjjOOOOOOOOOOOOOOOOOOOOOOOOOOOoo#=::4tfdsssssssjjjjjjjjjj",
"jjjjjjjjjjOOOOOOOOOOOOOOOOOOOOOOOOOOOOOOoX.&6tisssssssjjjjjjjjjj",
"jjjjjjjjOOOOOOOOOOooooooooooooooooOOOOOOOoo@&4edssssssssjjjjjjjj",
"jjjjjjjjOOOOOOOoo#=>>::::::::::>>=#oOOOOOOOo.;0dssssssssjjjjjjjj",
"jjjjjjjjOOOOoooX.&7wqqqqqqqqqqqqw7&XoOOOOOOoX:0dssssssssjjjjjjjj",
"jjjjjjjjOOo#=>>:;4tgfddddddddddfgt5&@oOOOOOOo>qfdsssssssjjjjjjjj",
"jjjjjjOOOoX&7wq00eiddssssssssssddpt6&XoOOOOOo>wgdsssssssssjjjjjj",
"jjjjjjOOo@&5tgfdddsssssssssssssssdft5&@oOOOOo=7tisssssssssjjjjjj",
"jjjjOOOoX&6tpddsssssssddddssssssssdpt6&XoOOOO#&4edssssssssssjjjj",
"jjjjOOo@&5tfdsssssssdie00eidsssssssdft5&@oOOOo.;0dssssssssssjjjj",
"jjjjOoX&6tpdsssssssdft4;;4tfdsssddssdpt6&XoOOoX:0dssssssssssjjjj",
"jjjjO$&5tgdsssssssdpt6&  &6russueeudsdft5&#OOOo:qdssssssssssjjjj",
"jjOOo=8ysfsssssssdft5&+ .O%3effe22efdsdpt7=oOOo:qdssssssssssssjj",
"jjOOo=8wqeussssssit6%O&>>;=3effe2,9eidsdfw>oOOo:qdssssssssssssjj",
"jjOOO$=:;3edssssde4%O&6wq00eussue9,2efddfq>oOOo:qdssssssssssssjj",
"jjOOOOXO%3edsssdfq;O%5tgfdddsssdfe2<9tudf0:XoOo:qdssssssssssssjj",
"jjOOOo.&6russssdgq;%6tpddsssssssdie913eff0;.oOo:qdssssssssssssjj",
"jjOOO#&5tfdssssit6&:qgdssssssssssdg0==0ffe4&#oX:qdssssssssssssjj",
"jjOOo=7tpdssssde4&+:qfdsssssddsssdf0;=0fdit7=XX:qdssssssssssssss",
"jjOOo>wgdsssssd0; .:qdsssssueeussdf0;;0dsdhw>XX:qdssssssssssssss",
"OOOOo>qfdsssssd0: .:qdssssde33edsdgq;;0dsdhw>XX:qdssssssssssssss",
"OOOOo:qdssssssdq:XX:qdssssd0==0gfpt6%;0fdur6*XX:qdssssssssssssss",
"OOOOo:qdssssssdq:XX:qdssssd0==0hht5%O;0ffe3&@oX:qdssssssssssssss",
"OOOOo:qdssssssd0: .>qfdsssde319qq6%O%4effe3&#oX:0dssssssssssssss",
"OOOOo:qdssssssd0; .>wgdssssut91-;%O%6tissit8=X ;0dssssssssssssdd",
"OOOOo:qdssssssde4&@&7tpdsssdft3==;;4tfdsdpy8=@&4edsssssssssssue0",
"OOOOo:qdsssssssit7&@&5tfdsssdue0000eidsdft5&@&7tisssssssssssde3;",
"OOOOo:qdsssssssdgq:  &6tpddsssddddddssdpt6&  :qgdssssssssssdf0; ",
"jjOOo:qdsssssssdfq: X@&5tgfdsssssssssdft5&@X :qfdssssssssssdg0:.",
"jjOOo:qdssssssssde4&@X.&7qqeiddssssddpt6& X@&4edsssssssssssut9;X",
"jjOOo:qdsssssssssit6&.X#=::4tgfddddfgt5&+  &6tisssssssssssde3=jj",
"jjOOo>qfdssssssssdft5&@XX..&7wqqq000q6%O&::4tfdssssssssssdf0; jj",
"jjOOo>wgdsssssssssdpt6&..XX#=>>:::;;;%O&6qqeidsssssssssssdgq:.jj",
"jjOOo=7tissssssssssdft4::=#XXXX..+&;;;;4tgfdssssssssssssdpt6&ojj",
"jjOOO#&4edssssssssssdieqq7&..XX  &6q000eiddssssssssssssdft5&#Ojj",
"jjOOOo.:qfdsssssssssssdfgt4;::::;4tgfdddssssssssssssssdpt6&XoOjj",
"jjjjOoX:qgdssssssssssssddie00qq00eiddssssssssssssssssdft5&@ojjjj",
"jjjjOOo=7tpdssssssssssssssddddddddssssssssssssssssssdpt6&XoOjjjj",
"jjjjOOO#&5tfdssssssssssssssssssssssssssssssssssssssdft5&@oOOjjjj",
"jjjjOOOoX&6tpdssssssssssssssssssssssssssssssssssssdpt6&XoOOOjjjj",
"jjjjjjOOo@&5tfdssssssssssssssssssssssssssssssssssdft5&@oOOjjjjjj",
"jjjjjjOOOoX&6tpdsssssssssssssssssssssssssssssssddpt6&XoOOOjjjjjj",
"jjjjjjjjOOo@&5tfdsssssssssssssssssssssssssssssdfgt5&@oOOjjjjjjjj",
"jjjjjjjjOOOoX&6tpddssssssssssssssssssssssssddieqq7&XoOOOjjjjjjjj",
"jjjjjjjjOOOOo@&5tgfdssssssssdddddddddddddddfgt4::=#oOOjjjjjjjjjj",
"jjjjjjjjOOOOOoX&7qqeiddssssue0000qqqqqqqqqqqw7&.XoOOOOjjjjjjjjjj",
"jjjjjjjjjjOOOOo#=::4tgfddfde3==;:::::::::::>>=#ooOOOjjjjjjjjjjjj",
"jjjjjjjjjjOOOOOOoX.&7wq00tpt4;:&@XXoooooooooooOOOOOOjjjjjjjjjjjj",
"jjjjjjjjjjjjjjOOOoo#=>>:;4tatqw8&XXOOOOOOOOOOOOOOOjjjjjjjjjjjjjj",
"jjjjjjjjjjjjjjOOOOOOoooX.&7wwee8=oOOOOOOOOOOOOOOOOjjjjjjjjjjjjjj",
"jjjjjjjjjjjjjjjjOOOOOOOoo#=>>>>=$OOOOOOOOOOOOOOOjjjjjjjjjjjjjjjj",
"jjjjjjjjjjjjjjjjOOOOOOOOOOooooooOOOOOOOOOOOOOOOOjjjjjjjjjjjjjjjj",
"jjjjjjjjjjjjjjjjjjjjOOOOOOOOOOOOOOOOOOOOOOOOjjjjjjjjjjjjjjjjjjjj",
"jjjjjjjjjjjjjjjjjjjjOOOOOOOOOOOOOOOOOOOOOOOOjjjjjjjjjjjjjjjjjjjj",
"jjjjjjjjjjjjjjjjjjjjjjjjjjOOOOOOOOOOOOjjjjjjjjjjjjjjjjjjjjjjjjjj",
"jjjjjjjjjjjjjjjjjjjjjjjjjjOOOOOOOOOOOOjjjjjjjjjjjjjjjjjjjjjjjjjj"
};
