/* XPM */
static char *result[] = {
/* columns rows colors chars-per-pixel */
"64 64 206 2 ",
"   c #030304",
".  c #05060A",
"X  c #0D070B",
"o  c #040B0C",
"O  c #0C0C0D",
"+  c #120D0F",
"@  c #14110E",
"#  c #19150F",
"$  c #1E180F",
"%  c #110F10",
"&  c #1C0E10",
"*  c #0D1C13",
"=  c #0E1611",
"-  c #141314",
";  c #191616",
":  c #1E1B16",
">  c #1D1B1B",
",  c #151819",
"<  c #0D0E11",
"1  c #260B0F",
"2  c #231B0F",
"3  c #240F11",
"4  c #2C1013",
"5  c #241C11",
"6  c #281F11",
"7  c #201F1E",
"8  c #341114",
"9  c #3A1115",
"0  c #361B1D",
"q  c #350D10",
"w  c #0D2215",
"e  c #0A3B1D",
"r  c #0A351C",
"t  c #143019",
"y  c #2B2112",
"u  c #252513",
"i  c #322611",
"p  c #372A12",
"a  c #33250D",
"s  c #221F22",
"d  c #083F20",
"f  c #242222",
"g  c #292726",
"h  c #2A2827",
"j  c #2C2B2B",
"k  c #292628",
"l  c #312E2D",
"z  c #32312F",
"x  c #353331",
"c  c #393634",
"v  c #3D3B39",
"b  c #3B3836",
"n  c #2E3230",
"m  c #4A1217",
"M  c #471217",
"N  c #5C141A",
"B  c #541318",
"V  c #4F0E14",
"C  c #68151C",
"Z  c #74161D",
"A  c #7C181F",
"S  c #7A161D",
"D  c #443213",
"F  c #4B3713",
"G  c #4D3813",
"H  c #553D13",
"J  c #6F1D22",
"K  c #413E3B",
"L  c #443433",
"P  c #672D2F",
"I  c #1F451F",
"U  c #0C4020",
"Y  c #0B4E24",
"T  c #0A5C29",
"R  c #055B29",
"E  c #175E28",
"W  c #0B602A",
"Q  c #096E2F",
"!  c #1A742F",
"~  c #036E30",
"^  c #0A6F30",
"/  c #057131",
"(  c #0A7230",
")  c #187530",
"_  c #2D792F",
"`  c #347D2F",
"'  c #2A6829",
"]  c #2D421A",
"[  c #524718",
"{  c #6A4B15",
"}  c #654715",
"|  c #755314",
" . c #775515",
".. c #6A581B",
"X. c #44413E",
"o. c #747824",
"O. c #456925",
"+. c #454341",
"@. c #4A4644",
"#. c #4D4946",
"$. c #4F4C49",
"%. c #524D4A",
"&. c #55514E",
"*. c #555453",
"=. c #595652",
"-. c #5D5955",
";. c #5E5D58",
":. c #605B56",
">. c #635E5A",
",. c #615752",
"<. c #745754",
"1. c #65615B",
"2. c #69645E",
"3. c #6B6560",
"4. c #6E6963",
"5. c #716B65",
"6. c #746F68",
"7. c #796A64",
"8. c #76716A",
"9. c #7A756E",
"0. c #7D7671",
"q. c #7E7972",
"w. c #94161F",
"e. c #891921",
"r. c #9A1A23",
"t. c #941922",
"y. c #A71B25",
"u. c #B31D27",
"i. c #B81D27",
"p. c #A1262D",
"a. c #C41E29",
"s. c #CC1F2B",
"d. c #C91A26",
"f. c #D61D2A",
"g. c #D4202C",
"h. c #DB212D",
"j. c #D12833",
"k. c #E1212E",
"l. c #805A18",
"z. c #966A1A",
"x. c #996C1A",
"c. c #91681A",
"v. c #B47D1D",
"b. c #AA7A1E",
"n. c #9A3C40",
"m. c #895C5A",
"M. c #827C74",
"N. c #857E78",
"B. c #887770",
"V. c #AC6463",
"C. c #BB4448",
"Z. c #D6555A",
"A. c #CA6F6F",
"S. c #5A862D",
"D. c #57852D",
"F. c #788E2B",
"G. c #7D922C",
"H. c #BD861E",
"J. c #B5811E",
"K. c #AE821E",
"L. c #91922A",
"P. c #A79A29",
"I. c #A89B29",
"U. c #BC9E27",
"Y. c #A28623",
"T. c #C3891E",
"R. c #C98E20",
"E. c #CE9321",
"W. c #C29F27",
"Q. c #D39C23",
"!. c #D59722",
"~. c #E29E22",
"^. c #D7A426",
"/. c #C3A228",
"(. c #E4A524",
"). c #878079",
"_. c #8A837C",
"`. c #8A847B",
"'. c #8E8782",
"]. c #8F8882",
"[. c #928B85",
"{. c #978F88",
"}. c #969188",
"|. c #9B938B",
" X c #A39B92",
".X c #A89F97",
"XX c #A3958C",
"oX c #ACA49B",
"OX c #A6A097",
"+X c #B3A79E",
"@X c #B3ABA1",
"#X c #B8AFA5",
"$X c #BCB3A8",
"%X c #D5A79F",
"&X c #E1A39D",
"*X c #C2B7AC",
"=X c #C7BEB2",
"-X c #D8938E",
";X c #CCC2B6",
":X c #CEC4B8",
">X c #D7C9BC",
",X c #D7CDC0",
"<X c #DACFC3",
"1X c #DDD3C6",
"2X c #E5DACC",
"3X c #509B66",
/* pixels */
"3X3X3X3X3X3X3X3X3X3X3X3X3X3X3X3X3X3X3X3X3X3X3X3X3X3X3X3X3X3X3X3X3X3X3X3X3X3X3X3X3X3X3X3X3X3X3X3X3X3X3X3X3X3X3X3X3X3X3X3X3X3X3X3X",
"3X3X3X3X3X3X3X3X3X3X3X3X3X3X3X3X3X3X3X3X3X3X3X3X3X3X3X3X3X3X3X3X3X3X3X3X3X3X3X3X3X3X3X3X3X3X3X3X3X3X3X3X3X3X3X3X3X3X3X3X3X3X3X3X",
"3X3X3X3X3X3X3X3X3X3X3X3X3X3X3X3X3X3X3X3X3X3X3X3X3X3X3X3X3X3X3X3X3X3X3X3X3X3X3X3X3X3X3X3X3X3X3X3X3X3X3X3X3X3X3X3X3X3X3X3X3X3X3X3X",
"3X3X3X3X3X3X3X3X3X3X3X3X3X3X3X3X3X3X3X3XO O < o o o o o o o o o o o o o o o O = 3X3X3X3X3X3X3X3X3X3X3X3X3X3X3X3X3X3X3X3X3X3X3X3X",
"3X3X3X3X3X3X3X3X3X3X3X3X3X3X3X3X3X3X3XO O O % % O - - O + O O % % O % % O @ O O O 3X3X3X3X3X3X3X3X3X3X3X3X3X3X3X3X3X3X3X3X3X3X3X",
"3X3X3X3X3X3X3X3X3X3X3X3X3X3X3X3X3X3X3X< % + 3 4 9 9 9 9 9 9 9 9 9 9 9 9 9 4 & - O < 3X3X3X3X3X3X3X3X3X3X3X3X3X3X3X3X3X3X3X3X3X3X",
"3X3X3X3X3X3X3X3X3X3X3X3X3X3X3X3X3XO o o O ; M C S A A S Z Z Z Z Z Z Z Z Z N 9 & O o < 3X3X3X3X3X3X3X3X3X3X3X3X3X3X3X3X3X3X3X3X3X",
"3X3X3X3X3X3X3X3X3X3X3X3X3X3X3X3XO O O O O q C r.u.i.i.u.u.u.u.u.i.y.i.i.u.e.N 3 O o < O 3X3X3X3X3X3X3X3X3X3X3X3X3X3X3X3X3X3X3X3X",
"3X3X3X3X3X3X3X3X3X3X3X3X3X3X3X3XO + + & 4 m A r.i.i.i.i.a.s.g.f.g.g.g.h.g.u.A M 4 - % + O 3X3X3X3X3X3X3X3X3X3X3X3X3X3X3X3X3X3X3X",
"3X3X3X3X3X3X3X3X3X3X3X3X3X3X3X3XO % 4 M C Z A A A S A e.y.a.h.k.h.h.h.h.g.a.y.A N 9 3 + O 3X3X3X3X3X3X3X3X3X3X3X3X3X3X3X3X3X3X3X",
"3X3X3X3X3X3X3X3X3X3X3X3X3X3X3X3Xo + 9 C t.t.Z m 9 4 9 m S y.f.f.h.g.g.g.f.s.a.i.e.N 4 + o 3X3X3X3X3X3X3X3X3X3X3X3X3X3X3X3X3X3X3X",
"3X3X3X3X3X3X3X3X3X3X3X3X3X3X3X3Xo + M Z y.t.C 4 @ o O 3 B e.i.d.s.f.g.g.f.s.s.i.r.C q + o 3X3X3X3X3X3X3X3X3X3X3X3X3X3X3X3X3X3X3X",
"3X3X3X3X3X3X3X3X3X3X3X3X3X3X3X3Xo - 4 N S C m & o o   O q V e.w.i.d.f.f.f.d.u.w.Z m 1 O . . 3X3X3X3X3X3X3X3X3X3X3X3X3X3X3X3X3X3X",
"3X3X3X3X3X3X3X3X3X3X3X3X3X3X3X3XO + 3 4 9 9 4 @ O o   X + 1 V C y.d.f.f.f.i.e.C 9 1 + O . X o O O O O O @ O 3X3X3X3X3X3X3X3X3X3X",
"3X3X3X3X3X3X3X3X3X3X3X3X3X3X3X3XO + + % & % @ O @ - , 7 > 7 0 P p.j.j.h.j.p.J 0 ; - - - # ; ; ; - - - + O O 3X3X3X3X3X3X3X3X3X3X",
"3X3X3X3X3X3X3X3X3X3X3X3X3X3X3X3X3XO O O o o o O ; z X.&.&.*.=.m.V.Z.A.Z.C.n.P L z n x x z z z z x z g > - O 3X3X3X3X3X3X3X3X3X3X",
"3X3X3X3X3X3X3X3X3X3X3X3X3X3X3X3X3X3X3X3X3X3X  O f %.M.|..X.XOX+X&X&X-X_.V.m.<.,.=.=.=.=.=.=.=.=.-.&.X.j ; O 3X3X3X3X3X3X3X3X3X3X",
"3X3X3X3X3X3X3X3X3X3X3X3X3X3X3X3X3X3X3X3X3X3X  O l 3.oX,X1X,X>X>X1X<X%XXXB.7.4.5.4.4.5.5.5.5.5.5.5.4.&.z ; X 3X3X3X3X3X3X3X3X3X3X",
"3X3X3X3X3X3X3X3X3X3X3X3X3X3X3X3X3X3X3X3X3X3X  O l 8.*X2X2X;X@X@X+XoX}.9.1.*.*.-.;.;.-.-.-.-.-.>.:.-.X.j - X . 3X3X3X3X3X3X3X3X3X",
"3X3X3X3X3X3X3X3X3X3X3X3X3X3X3X3X3X3X3X3X3X3X  O l 0.=X2X=X[.5.1.1.:.&.+.x n n x z z c x c x x c c z j ; O . O O O 3X3X3X3X3X3X3X",
"3X3X3X3X3X3X3X3X3X3X3X3X3X3X3X3X3X3X3X3X3X3X  O l 8.$X:X X:.l s u k g s u > > > u 7 > > > > > > > > ; ; - O O O O 3X3X3X3X3X3X3X",
"3X3X3X3X3X3X3X3X3X3X3X3X3X3X3X3X3X3X3X3X3X3X  O l 4.oX#X`.K - - g x b v v b v v c x z n l l l l z z z z l h > - O O 3X3X3X3X3X3X",
"3X3X3X3X3X3X3X3X3X3X3X3X3X3X3X3X3X3X3X3X3X3X  O k -._.|.4.z - g %.6.M.N.).).).M.q.8.4.2.>.>.>.>.1.2.2.2.1.%.x > @ . 3X3X3X3X3X3X",
"3X3X3X3X3X3X3X3X3X3X3X3X3X3X3X3X3X3X3X3X3X3X  O u #.8.9.=.j 7 +.N.#X;X;X=X=X=X;X$X+X X}.{.{.{.{.}.}.|.XX{.9.#.f O . 3X3X3X3X3X3X",
"3X3X3X3X3X3X3X3X3X3X3X3X3X3X3X3X3X3X3X3X3X3X. O u +.1.4.#.g u &.XX<X2X1X:X:X,X1X,X*X.X|. XoX@X.X X|. X+XoX[.=.g O   3X3X3X3X3X3X",
"3X3X3X3X3X3X3X3X3X3X3X3X3X3X3X3X3X3X3X3X3X3XX O 7 v ;.3.#.f s =..X2X1X#X}.|.@X:X=X XM.8._. X+X XN.6.M.|.oX[.-.k O   3X3X3X3X3X3X",
"3X3X3X3X3X3X3X3X3X3X3X3X3X3X3X3X3X3X3X3X3X3X  O > X.1.3.#.g s =. X>X*X).=.=.).oXoXM.%.K >.[..X_.-.K &.N. X[.-.g O   3X3X3X3X3X3X",
"3X3X3X3X3X3X3X3X3X3X3X3X3X3X3X3X3X3X3X3X3X3XX + u X.1.4.#.g s *. X;XoX2.h z 1.}.|.2.l f %._. X0.+.s b 6.|.[.-.g O   3X3X3X3X3X3X",
"3X3X3X3X3X3X3X3X3X3X3X3X3X3X3X3X3X3X3X3X3X3X. + 7 +.1.4.#.g s %.{.$XXX=.7 h :.{.{.>.k 7 @.N.|.0.K > z 5.XX[.-.g O   3X3X3X3X3X3X",
"3X3X3X3X3X3X3X3X3X3X3X3X3X3X3X3X3X3X3X3X3X3X. O > +.1.3.$.h u #.`.oX[.%.7 h >.{.{.>.l 7 #.N. X0.K > x 5.|.[.-.g O   3X3X3X3X3X3X",
"3X3X3X3X3X3X3X3X3X3X3X3X3X3X3X3X3X3X3X3X3X3X. O 7 +.1.4.$.g > X.M. X_.$.f l >.|.{.3.l s %.N. X0.X.s c 5.|.[.:.g O   3X3X3X3X3X3X",
"3X3X3X3X3X3X3X3X3X3X3X3X3X3X3X3X3X3X3X3X3X3X. + 7 K 1.4.$.g > X.M.|.N.@.7 l >.{.{.>.j s #.N. X0.K > x 5.|.[.-.g O   3X3X3X3X3X3X",
"3X3X3X3X3X3X3X3X3X3X3X3X3X3X3X3X3X3X3X3X3X3XX O 7 X.>.4.%.g s +.0.|.N.@.7 k >.}.{.>.j 7 @.N.XX0.v > z 5.|.].,.k O   3X3X3X3X3X3X",
"3X3X3X3X3X3X3X3X3X3X3X3X3X3X3X3X3X3X3X3X3X3X. + 7 K 1.4.%.k > X.M. X_.%.k x 3.|.|.3.z k %._. XM.+.g v 6. X].-.k O   3X3X3X3X3X3X",
"3X3X3X3X3X3X3X3X3X3X3X3X3X3X3X3X3X3X3X3X3X3X  + u X.2.5.$.g > +.0. X{.5.@.=.M. X Xq.*.#.4.{..X'.>.@.-.N. X[.-.g O   3X3X3X3X3X3X",
"3X3X3X3X3X3X3X3X3X3X3X3X3X3X3X3X3X3X3X3X3X3X. O s +.2.5.%.g > X.M..XoX[.M.M.|.oXoX{.N.q.[..X@X X_.M._..X+X[.-.k O   3X3X3X3X3X3X",
"3X3X3X3X3X3X3X3X3X3X3X3X3X3X3X3X3X3X3X3X3X3X. O s K 1.4.$.k > K 8. X@X.X X X.XoXoX.X X X.XoXoXOX X X.XoXoX'.=.g O   3X3X3X3X3X3X",
"3X3X3X3X3X3X3X3X3X3X3X3X3X3X3X3X3X3X3X3X3X3X. + ; x %.=.K u > x >.N.[.[.].].].].'.'.].[.'.'.[.'.[.'.[.{.'.6.@.s O . 3X3X3X3X3X3X",
"3X3X3X3X3X3X3X3X3X3X3X3X3X3X3X3X3X3X3X3X3XO X < & s x c j ; - f v $.*.-.*.*.*.*.*.*.*.*.*.*.&.*.*.*.-.-.*.@.l ; + X 3X3X3X3X3X3X",
"3X3X3X3X3X3X3X3X3X3X3X3X3X3X3X3X3X3X3X3X+ O O % % ; ; 7 ; - O # s s k k k g k k g k k g g g g h k k k k k s ; % O O 3X3X3X3X3X3X",
"3X3X3X3X3X3X3X3X3X3X3X3X3X3X3X3X3X3X3XO O O = * * * * * * * w : 7 y i i i i i i i i i i a i i i a a 6 ; @ O O O O 3X3X3X3X3X3X3X",
"3X3X3X3X3X3X3X3X3X3X3X3X3X3X3X3X3X3X3X+ + = w r e e e e r e I ] [ { | |  . . . . . .| |  . . . . .| H a + . . O 3X3X3X3X3X3X3X3X",
"3X3X3X3X3X3X3X3X3X3X3X3X3X3X3X3X3X3X3XX + * r Y T W W W R R E O.c.J.T.T.H.H.H.H.H.T.H.T.H.H.H.T.T.H.c.G 2 O . 3X3X3X3X3X3X3X3X3X",
"3X3X3X3X3X3X3X3X3X3X3X3X3X3X3X3X3X3X3XO - w d W ( ( ( ( ~ ~ ! O.L.^.~.!.!.E.E.E.E.E.E.R.E.E.E.!.Q.T.x.H 2 O 3X3X3X3X3X3X3X3X3X3X",
"3X3X3X3X3X3X3X3X3X3X3X3X3X3X3X3X3X3X3XX O w U W ( ( ( ( / / ) S.I.^.~.R.b.c.z.x.z.x.x.z.x.x.x.x.x.z.| p 5 O 3X3X3X3X3X3X3X3X3X3X",
"3X3X3X3X3X3X3X3X3X3X3X3X3X3X3X3X3X3X3XX O w U W ( ( ( ( / ~ _ S.I.^.R.c.} F D F F F F F F F F G G F p 6 @ O 3X3X3X3X3X3X3X3X3X3X",
"3X3X3X3X3X3X3X3X3X3X3X3X3X3X3X3X3X3X3XO - w U W ^ ( ( ( ~ ~ ! S.I.Q.J.| y % % ; : : : > : : : > 5 ; : @ O O 3X3X3X3X3X3X3X3X3X3X",
"3X3X3X3X3X3X3X3X3X3X3X3X3X3X3X3X3X3X3XO O w U W ( ( ( / ~ ~ ! S.I.^.v.{ 5 < , k j j j j j j j j j j f > - O 3X3X3X3X3X3X3X3X3X3X",
"3X3X3X3X3X3X3X3X3X3X3X3X3X3X3X3X3X3X3XX % w U W ( ( ( ( ~ ~ ! S.I.Q.v.} > , j +.&.&.&.&.%.&.&.&.*.&.v k - O 3X3X3X3X3X3X3X3X3X3X",
"3X3X3X3X3X3X3X3X3X3X3X3X3X3X3X3X3X3X3XX % w U T ( ( ( ( ~ ~ ! S.I.!.v.{ u s v ;.8.8.6.5.6.6.6.8.8.4.*.x ; O 3X3X3X3X3X3X3X3X3X3X",
"3X3X3X3X3X3X3X3X3X3X3X3X3X3X3X3X3X3X3XX % w U W ( ( ( ^ ~ ~ ! S.I.!.v.} 6 f +.4.M.M.).M.q.q.M.M.M.9.;.x ; O 3X3X3X3X3X3X3X3X3X3X",
"3X3X3X3X3X3X3X3X3X3X3X3X3X3X3X3X3X3X3XX % w U W ( ( ^ ^ ~ ~ ! S.P.Q.v.} 7 k +.4.M.`.).q.M.M.9.q.q.9.;.c > O 3X3X3X3X3X3X3X3X3X3X",
"3X3X3X3X3X3X3X3X3X3X3X3X3X3X3X3X3X3X3XX < w U W ^ ( ^ ^ ~ / ! S.P.Q.K.{ 6 s +.3.9.q.9.9.9.9.9.).).8.-.c : O 3X3X3X3X3X3X3X3X3X3X",
"3X3X3X3X3X3X3X3X3X3X3X3X3X3X3X3X3X3X3XX < w U W / ( / / ~ ~ ! S.P.Q.v.{ y > x *.1.2.1.2.6.q.`._.`.).2.v : o 3X3X3X3X3X3X3X3X3X3X",
"3X3X3X3X3X3X3X3X3X3X3X3X3X3X3X3X3X3X3XO < w U R / / / ~ ~ ~ ^ D.P.Q.v.{ 5 , f x K K K X.1.M.}. XOX}.8.X.7 X 3X3X3X3X3X3X3X3X3X3X",
"3X3X3X3X3X3X3X3X3X3X3X3X3X3X3X3X3X3X3XO < w U W ^ ( / ^ ~ ~ ! S.P.Q.v.{ u < * > 7 > u n &.N. X+X+XOXq.@.7 O 3X3X3X3X3X3X3X3X3X3X",
"3X3X3X3X3X3X3X3X3X3X3X3X3X3X3X3X3X3X3XX % > Y ' _ ` _ _ _ _ ` F.U.Q.J.{ y O . O O   O 7 %.).oX@X.X[.5.X.> O 3X3X3X3X3X3X3X3X3X3X",
"3X3X3X3X3X3X3X3X3X3X3X3X3X3X3X3X3X3X3X. = u [ o.G.G.G.G.F.F.L.I.^.^.J.{ y o . o X   X : &._.oX.X'.3.#.j ; O 3X3X3X3X3X3X3X3X3X3X",
"3X3X3X3X3X3X3X3X3X3X3X3X3X3X3X3X3X3X3X. O i ..Y././.U.U.U.U.W.^.(.(.J.{ 6 O . < O . O 7 &._.OX[.>.v u , - O 3X3X3X3X3X3X3X3X3X3X",
"3X3X3X3X3X3X3X3X3X3X3X3X3X3X3X3X3X3X3X. - p ..v.E.Q.E.E.E.E.E.!.Q.E.x.} 5 X . < + . . 7 #.9.[.6.X.; O O O O 3X3X3X3X3X3X3X3X3X3X",
"3X3X3X3X3X3X3X3X3X3X3X3X3X3X3X3X3X3X3X. + y H l.x.x.x.x.z.z.z.x.z.c.{ D ; O . % O O O - x =.>.$.k % . . O 3X3X3X3X3X3X3X3X3X3X3X",
"3X3X3X3X3X3X3X3X3X3X3X3X3X3X3X3X3X3X3XO + ; 6 D F G F F G G F F F D p 5 @ O O 3X3XO O - 7 j z h > % O X 3X3X3X3X3X3X3X3X3X3X3X3X",
"3X3X3X3X3X3X3X3X3X3X3X3X3X3X3X3X3X3X3XO + + % - - - ; - - - - - - @ - + O O 3X3X3X3XO O @ - - @ @ + O 3X3X3X3X3X3X3X3X3X3X3X3X3X",
"3X3X3X3X3X3X3X3X3X3X3X3X3X3X3X3X3X3X3XO O O X . . . . . . . . . . . . O % % 3X3X3X3X+ O O . . . O O O 3X3X3X3X3X3X3X3X3X3X3X3X3X"
};
