/* XPM */
static char *result[] = {
/* columns rows colors chars-per-pixel */
"64 64 190 2 ",
"   c #1C1317",
".  c #1D1917",
"X  c #1E1318",
"o  c #1F1B18",
"O  c #241718",
"+  c #231C19",
"@  c #2C1F1C",
"#  c #221717",
"$  c #3A1F1F",
"%  c #321F1E",
"&  c #1E261C",
"*  c #1C2D1E",
"=  c #1B331F",
"-  c #20261C",
";  c #2C201C",
":  c #22291C",
">  c #2C2B1B",
",  c #33231D",
"<  c #3B201F",
"1  c #39291F",
"2  c #36281F",
"3  c #2C301D",
"4  c #33351D",
"5  c #383F1E",
"6  c #1B3620",
"7  c #163921",
"8  c #193A21",
"9  c #3A2320",
"0  c #3C2D22",
"q  c #203D22",
"w  c #452723",
"e  c #4C2625",
"r  c #452B21",
"t  c #4B2925",
"y  c #542D26",
"u  c #572E28",
"i  c #5D2D2B",
"p  c #4B3125",
"a  c #533424",
"s  c #5E302A",
"d  c #583928",
"f  c #612F2C",
"g  c #64322C",
"h  c #69352D",
"j  c #6D392E",
"k  c #653729",
"l  c #713A2F",
"z  c #723D31",
"x  c #0F4E27",
"c  c #0E4D28",
"v  c #144B26",
"b  c #114F28",
"n  c #174223",
"m  c #0E592B",
"M  c #115027",
"N  c #115429",
"B  c #145929",
"V  c #334C23",
"C  c #0D652D",
"Z  c #0A6A2F",
"A  c #0E762F",
"S  c #10772F",
"D  c #137A2F",
"F  c #1E712D",
"G  c #016631",
"H  c #066B31",
"J  c #096C30",
"K  c #0B7330",
"L  c #0F7A30",
"P  c #107D30",
"I  c #326629",
"U  c #414C21",
"Y  c #5F432C",
"T  c #435021",
"R  c #4C5E23",
"E  c #465A23",
"W  c #63462E",
"Q  c #7B452E",
"!  c #73462B",
"~  c #644C30",
"^  c #7C4231",
"/  c #754132",
"(  c #795437",
")  c #4E6024",
"_  c #556E26",
"`  c #4B782A",
"'  c #824632",
"]  c #864832",
"[  c #8A4B33",
"{  c #8A5436",
"}  c #935334",
"|  c #9A5735",
" . c #9D5936",
".. c #945B3D",
"X. c #9B5B39",
"o. c #A35D37",
"O. c #A25E39",
"+. c #A85F36",
"@. c #8D643C",
"#. c #95673E",
"$. c #A5633B",
"%. c #AC6438",
"&. c #AB6439",
"*. c #B16739",
"=. c #B56A3A",
"-. c #B96D3A",
";. c #BC723E",
":. c #946E41",
">. c #9C6A42",
",. c #977142",
"<. c #AA6D43",
"1. c #AE7447",
"2. c #B37443",
"3. c #B97A46",
"4. c #B56F40",
"5. c #C27B43",
"6. c #16822F",
"7. c #1B852E",
"8. c #1F8A2E",
"9. c #228D2D",
"0. c #23862F",
"q. c #23902D",
"w. c #29932C",
"e. c #2E9B2C",
"r. c #329E2A",
"t. c #3F9B30",
"y. c #39852F",
"u. c #35A32B",
"i. c #38A52A",
"p. c #3DAB29",
"a. c #599D30",
"s. c #638629",
"d. c #648A2B",
"f. c #6B912B",
"g. c #6F9A2C",
"h. c #709A2C",
"j. c #41AC2B",
"k. c #4DBD27",
"l. c #45B428",
"z. c #4BBA28",
"x. c #47B529",
"c. c #52BF28",
"v. c #50BE27",
"b. c #5EB831",
"n. c #7AAB2F",
"m. c #7DAE30",
"M. c #75B231",
"N. c #4FC027",
"B. c #51C126",
"V. c #56C129",
"C. c #5CC32A",
"Z. c #64C62C",
"A. c #68C72D",
"S. c #66CA2C",
"D. c #6BCA2D",
"F. c #73CD2F",
"G. c #75CC30",
"H. c #7BCE30",
"J. c #7BC733",
"K. c #7ED331",
"L. c #85BE32",
"P. c #87C132",
"I. c #88C233",
"U. c #8ECD34",
"Y. c #83D332",
"T. c #8CD434",
"R. c #8AD934",
"E. c #93D636",
"W. c #95D936",
"Q. c #99DC37",
"!. c #90CD35",
"~. c #9DE238",
"^. c #9BE037",
"/. c #BF8C4F",
"(. c #BD834B",
"). c #C78147",
"_. c #C98247",
"`. c #C9864A",
"'. c #C58A4F",
"]. c #CB8A4C",
"[. c #C5854C",
"{. c #D2904F",
"}. c #C18E50",
"|. c #CE9051",
" X c #D39452",
".X c #D59A55",
"XX c #DA9C57",
"oX c #D18E4E",
"OX c #DDA159",
"+X c #509B66",
/* pixels */
"+X+X+X+X+X+X+X+X# X X X X X X X                   #       X X X   # # X X X     #     #           #             +X+X+X+X+X+X+X+X",
"+X+X+X+X+X+X+X+X+ O + O + + + + + + + + + + + + + + + + + + + + + + + + + + + + + + + + + + + + O + + O + + + + +X+X+X+X+X+X+X+X",
"+X+X+X+X+X+X+X+X4 4 4 4 4 4 4 4 4 4 4 4 4 4 4 4 4 4 4 4 4 4 4 4 4 4 4 4 4 4 4 4 4 4 4 4 4 4 4 4 4 4 4 4 4 4 4 4 +X+X+X+X+X+X+X+X",
"+X+X+X+X+X+X+X5 U R R R R R R R R R R R R R R R R R ) ) R ) ) ) R R ) R ) R ) R R R R R R R ) ) R R R ) R R E T 5 +X+X+X+X+X+X+X",
"+X+X+X+X+XX > U _ s.f.f.f.f.f.f.f.f.f.d.f.f.f.f.f.f.f.f.f.f.f.f.f.f.f.f.f.f.f.f.f.f.f.f.f.f.f.f.f.f.f.f.f.f.s._ U > X +X+X+X+X+X",
"+X+X+X+XX + 4 R s.n.P.P.P.L.L.L.L.L.L.L.L.L.L.P.L.L.L.L.L.L.L.L.L.L.L.L.L.L.L.L.L.L.L.L.L.L.L.P.L.L.P.I.P.P.n.s.R 4 + X +X+X+X+X",
"+X+X+X+X> 4 V _ g.P.E.Q.Q.E.E.E.E.W.E.E.E.E.E.R.E.T.T.T.T.T.T.Y.T.T.T.T.T.T.E.E.R.R.W.R.T.T.T.T.E.E.E.W.W.E.P.h._ U 4 > +X+X+X+X",
"+X+X+X5 U R _ f.n.U.^.~.^.^.^.Q.^.Q.^.^.^.Q.W.W.T.Y.K.K.K.K.K.K.K.K.K.K.K.K.Y.T.W.Q.Q.W.R.Y.Y.R.E.^.^.~.~.^.T.n.f._ R U 5 +X+X+X",
"X + 4 T _ s.h.M.P.E.Q.Q.^.Q.Q.Q.Q.Q.Q.Q.^.Q.W.Y.K.F.D.A.D.D.D.S.A.D.D.D.D.D.F.K.R.W.W.R.H.F.F.K.T.W.Q.^.~.Q.E.L.n.g.s._ U 4 + X ",
"X + 4 E s.n.P.U.E.E.W.W.Q.W.W.W.Q.Q.Q.!.Q.Q.T.Y.D.C.C.V.B.V.V.V.V.V.C.B.B.V.C.D.Y.R.T.K.D.Z.Z.S.K.E.W.W.Q.E.E.E.U.P.n.s.E 4 + X ",
"X # 4 R f.L.E.^.E.T.T.T.E.W.W.W.!.Q.!.Q.Q.Q.!.H.S.V.v.k.B.V.V.V.N.k.N.k.k.k.V.A.H.Y.Y.F.Z.V.c.Z.F.Y.T.E.E.E.W.Q.Q.W.L.f.R 4 + X ",
"X + 4 R f.P.R.^.R.K.K.Y.T.E.W.W.W.W.Q.W.Q.!.U.H.S.V.v.B.C.Z.Z.b.B.k.k.k.k.N.V.C.D.G.F.D.C.c.v.C.Z.F.Y.Y.E.E.Q.~.~.Q.P.f.R 4 # X ",
"X + 4 ) f.I.W.R.H.D.D.F.Y.T.W.W.W.W.W.W.W.W.T.F.Z.V.v.V.A.F.F.A.C.v.k.k.k.k.B.V.Z.Z.Z.Z.V.N.k.B.c.A.F.H.Y.E.W.~.~.W.P.f.R 4 + X ",
"X # 4 ) f.L.T.Y.F.Z.Z.D.H.T.W.W.W.W.W.W.Q.E.T.H.A.V.V.A.F.Y.Y.G.A.V.k.k.k.k.k.k.c.c.V.c.v.k.k.k.c.c.Z.D.H.T.W.Q.^.W.L.f.) 4 +   ",
"  + 4 ) f.L.T.K.S.V.c.A.H.U.W.W.W.W.W.W.W.W.T.H.A.V.c.A.H.Y.Y.H.A.c.k.l.l.l.l.l.l.l.l.x.z.z.k.k.z.v.c.Z.F.Y.R.W.Q.W.L.f.R 4 + X ",
"X + 4 ) f.I.R.Y.S.V.c.Z.H.E.E.Q.Q.W.W.Q.Q.W.T.H.A.V.V.V.D.F.F.D.Z.v.z.l.p.u.u.r.r.r.i.p.l.z.k.k.z.v.c.c.A.F.Y.R.W.W.P.f.) 4 +   ",
"X + 4 ) h.L.E.K.D.V.V.S.G.T.W.Q.Q.Q.W.Q.Q.W.E.J.A.V.v.V.C.A.A.C.C.v.x.p.r.w.9.8.0.9.w.r.p.l.k.k.k.k.v.V.V.Z.F.K.R.W.P.f.) 4 + X ",
"X + 4 R f.L.T.K.S.V.V.Z.H.T.W.W.Q.E.W.Q.W.E.T.H.A.V.v.k.v.V.V.V.c.k.l.u.w.7.D A A S 7.w.i.l.k.N.v.k.k.k.c.V.Z.D.Y.T.L.f.) 4 + X ",
"X + 4 R d.M.J.D.Z.V.V.Z.G.Y.T.T.T.T.T.E.T.U.Y.F.S.V.k.k.k.k.k.k.B.k.l.r.9.S A G H A D 9.u.l.k.N.v.k.k.k.k.k.V.Z.G.J.M.d.E 4 + X ",
"# # 3 V ` a.b.b.c.B.V.C.A.G.H.H.J.H.H.H.H.H.H.D.C.V.k.k.k.k.k.k.v.z.l.r.9.A J G G G A 8.r.l.k.N.k.k.k.k.k.k.k.c.b.b.a.` V 3 +   ",
"O + : V I y.j.j.l.z.B.C.C.Z.A.A.A.A.A.S.A.A.A.C.V.V.B.k.k.k.k.N.B.k.l.r.0.A H G G H A 7.u.l.k.N.B.k.k.k.B.k.z.l.j.j.y.I V : + O ",
"O + : q B F 0.y.p.l.k.V.V.V.V.B.V.V.V.V.V.V.V.v.B.k.k.k.k.k.k.k.N.k.l.u.9.D J J H A D 9.u.l.k.k.v.k.k.k.N.k.l.p.y.0.F B q : + + ",
"O + & 7 v C S 8.e.p.l.z.k.k.k.N.k.v.k.k.k.k.k.z.l.l.l.l.z.k.k.N.B.k.l.i.w.0.D S S D 7.w.u.x.N.N.N.k.k.k.z.l.p.r.8.S C b 7 - + O ",
"O + - 7 b G K 6.q.e.i.p.l.z.k.k.N.k.k.N.k.k.z.l.p.i.i.p.l.z.N.B.B.v.x.p.r.w.9.9.9.w.w.r.p.x.N.N.B.k.k.l.p.i.r.8.6.K C b 7 & + O ",
"O + & 7 M C K L 6.8.w.u.p.z.N.N.N.N.N.N.N.N.x.p.e.w.w.r.p.x.N.B.B.N.k.l.p.p.u.u.u.u.p.p.x.N.N.N.B.N.z.j.r.w.8.7.L K C M 7 : + O ",
"O + : 7 v C K K K P 7.w.i.l.k.N.k.k.k.k.k.k.l.u.w.7.6.w.u.l.k.N.N.k.z.z.z.l.l.l.p.l.l.x.x.k.N.N.k.k.l.i.w.7.D K K K C v 8 - + O ",
"O + - 6 v B Z J J K P 7.e.p.l.l.l.l.l.l.l.l.p.e.8.D D 7.e.p.l.l.l.l.l.l.l.l.l.p.l.l.l.l.l.l.l.l.l.l.p.e.8.D K J H C m v 6 - + O ",
"+ O - * 7 v N m C J K 7.q.e.u.u.u.u.u.u.u.u.e.q.6.A A 6.q.e.u.i.u.u.u.u.u.i.i.u.u.i.u.u.u.u.u.u.u.i.e.q.6.A J Z m m v 8 * - + O ",
"O + + & * 6 8 b m J K L 7.8.q.q.q.q.q.q.q.9.8.6.L A K L 6.8.9.q.q.q.9.q.q.q.q.q.w.q.q.q.q.9.q.q.q.q.8.6.P K J m M 8 7 & - - O + ",
"+ + + + - - 6 n N C K A L P D D D D D D D D D S J A A A A D D D D D D L D D D D D D D D D D D D D D D L A J C N n 6 - - + + + + ",
"+ + + + O + & 7 v m C Z C C C C C C C C C C C C C C C C C C C C C C C C C C C C C C C C C C C C C C C Z Z C m v 8 - + + O + + + ",
"+ + + + O + o * 8 v b M M M c x x x x x x x x x x x M M x x x x x x x x M x M M x x x x x x x x x x x x N M v 7 * + X O + + + + ",
"+ + + # # . . & * 6 7 7 7 7 7 7 7 8 7 8 7 8 = = 8 8 8 8 8 7 7 7 = = = 8 7 7 7 7 8 8 = 7 7 7 8 8 7 8 7 7 7 7 = * & . # # + + + + ",
"+ + + # + + + - & - : & & : & - & & & & & & * & & & & - & : - - & * - - & & & & - - & & & & - - & & & & : - : - - + + + + + + + ",
"+ + - @ ; 1 , , @ @ @ @ ; @ @ @ @ @ ; @ ; ; @ @ ; ; @ @ @ @ @ @ ; @ ; @ ; ; ; ; @ @ @ @ ; ; ; @ @ @ ; @ ; @ ; ; , 1 1 ; ; + + # ",
". + ; , r a a r w w $ $ $ 9 $ $ $ < < < < < < < $ 9 < < < $ < $ , < < < < < < < < < < < < < 9 $ 9 $ 9 $ $ < < r t a p r 1 ; + o ",
". + , r Y ! ! ! k y e e e e e e e e e e e e e e e e e e e e e e e e e e e e e e e e e e e e e e e e e e e e y s ! ! ! Y r , + . ",
". + , a ! {  .} Q k i i f f i s s s s s i f g s i s s s i f f i s s s i s s s s s s s s s s g i s i f i i i h ^ } | } ! a > # . ",
". + 1 d { $.<.o.} ^ l l z z / z z z l j l l l l l l z l l l l l l l z l l l z l l l l l l l l l l l l z l / ' } +.*.$.( d 1 + . ",
". + 1 Y { 4.5.4.O.{ [ [ { ....{ { ] ] ] ] ] ' [ ' ' [ ' ] ] ] ] ] ] ] ] [ ] [ [ [ [ ] [ ] ] ] ' ' ] ] { { ..>.<.;.(.-.{ Y 1 + . ",
". + 1 W @.(._.5.*.O.X.<.<.<.1.<.$.o.o.| | | o.|  .| |  .| | | | | | |  .|  . . . . . .|  .| | | | | o.#.<.1.(.[.].].(.@.Y 4 +   ",
". + 4 ~ #.(.|.`.5.-.=.2.3.'.'.[.2.=.%.+.+.+.%.+.+.*.%.%.%.%.%.%.%.%.%.%.%.%.%.%.%.%.%.%.%.%.%.%.%.%.*.;.(.'.}. X.X X/.#.~ 4 + . ",
"  o 1 ~ #./. X{.5.5.-.5.].|.|.].5.4.-.-.=.-.-.=.=.=.=.=.=.=.=.-.=.=.=.*.%.%.%.%.%.%.%.%.*.=.=.=.=.=.;.5.`.|..XXXOX.X/.#.~ 1 +   ",
". o 4 ! ,./. X{.5.3.;.5.).].]._.5.4.;.-.-.-.-.-.-.-.-.-.-.-.-.-.-.-.=.*.+.o.| | | |  .&.*.=.-.-.-.-.;.5._.].{.XXOX.X/.#.~ 1 o . ",
"  - 0 ~ #./..X.X_.5.-.-.5.5.5.5.5.-.-.-.-.-.-.-.-.-.-.-.=.-.-.-.-.-.*.+.| [ ] ' ' ] [ | +.*.=.-.-.-.-.;.5.)._.{..X.X/.,.~ 0 -   ",
"  ; 0 ~ ,./..X|._.;.-.-.-.-.;.4.=.-.-.=.-.=.=.-.=.=.=.=.=.=.=.-.-.=.%. .[ ^ l j j l ^ [  .%.=.;.-.-.-.-.=.;.;.]. X.X/.#.~ 0 + . ",
"  o 0 ~ #./..X|._.4.=.=.-.=.=.=.*.%.%.%.%.+.*.*.=.=.=.=.=.-.=.-.-.-.%.| ] l h f g h l ' | %.*.=.*.%.%.%.*.=.;._.{..X'.,.~ 1 +   ",
"  - 5 ~ #.}..X{._.-.=.=.=.=.*.+.o. .| } | |  .o.+.=.=.=.-.=.=.-.-.=.%.} ' j f i i f j ' | %.*.%.+. .| o.$.*.;._.{..X'.,.~ 4 o . ",
"  - 1 ~ ,./..X X_.4.-.=.=.=.*.o.| [ ] ' ' ' [ | +.*.=.-.=.=.=.-.-.=.%.} ' j g i f f j ' | %.%.O.} [ [ } o.%.-._. XXX/.,.~ 0 + . ",
"  o 1 ~ :./..X|._.4.=.=.=.=.%.| [ z l l l l z [ o.+.=.=.-.=.-.=.-.=.%.| ' l h f f g l [ | %.%.o.[ ^ Q ' | *.;._.{. X(.:.~ 0 o . ",
"  + 1 ~ @.3.'.].5.-.-.-.-.=.%.| ] l h f f g l ] | %.=.-.-.=.-.-.-.=.%.o.] ^ l j j l Q [ o.%.%. .[ ' ^ ] | %.4.5.].}.3.:.Y 0 + . ",
". - 2 d ( >.1.2.5.-.-.-.-.-.%.| ' l g f f f l ' | *.-.-.-.-.-.-.-.-.*.+.| [ ' ' ' ] [ | &.*.%.&.} [ [ } o.*.-.3.3.2.>.( d 9 o . ",
". + , p W { >.$.<.=.-.-.-.-.%.| ] l f f g g z ' | *.-.-.-.-.-.-.-.-.=.%.+.o.| | | | o.+.%.=.=.%.+.o.o.+.%.*.=.=.<.>.{ W p 9 o . ",
". + ; r a h ^ { o.%.-.-.-.-.+.| ] l g f f g l ' | +.=.=.=.-.=.=.=.-.=.*.%.%.%.%.%.%.%.%.*.=.=.*.%.%.%.*.=.=.%.O.[ / h u 0 - + o ",
"o + ; < w u h ^ } o.+.=.*.*.o.} ] l g g g g l ^ } o.+.*.*.*.+.%.%.%.%.%.%.%.%.%.%.%.%.%.%.%.%.%.%.+.%.%.%.+.o.[ z h u w 9 @ + o ",
"o + + , 9 w y h ' [ | | o.| } [ z l h h g g l ^ ] } o.| | |  .| | | | | | o.|  . . . .|  .| |  .| o.o.| o.| } ^ h u w 9 % @ + o ",
"+X+X+X@ @ 9 w a h Q ] [ [ ] ' Q z j g g h h j l ^ ' ] ] ] ' ' ] [ ' ] ] ] ] [ [ ] ] ] ] ] ] ] ] [ [ ] [ [ [ ^ h u w 9 @ @ +X+X+X",
"+X+X+X+X+ @ , w u g l l l l l j h h h g g h h h j l l j z z z z l z l j z l l z l z z z z z z j l l l l l j h u w , @ @ +X+X+X+X",
"+X+X+X+X+ O @ 9 t u s g g s i i g s s i f i i g i s s s i f s s f s s s s s g s s s s i f s s s s s s s g s u t 9 ; + . +X+X+X+X",
"+X+X+X+X+X+ + 9 < t t t t t t t t t t y t y t t t t e t t e t w e t t e w t e t t t t t e t t e t t t t t t w 9 , + + +X+X+X+X+X",
"+X+X+X+X+X+X+X@ , 9 9 9 , < < 9 9 9 9 9 9 9 9 9 < 9 9 9 9 9 9 9 9 9 9 9 9 9 9 9 9 9 9 9 9 9 9 9 2 9 9 9 9 9 9 , @ +X+X+X+X+X+X+X",
"+X+X+X+X+X+X+X+X@ @ @ ; @ @ ; ; ; @ ; @ ; ; ; ; ; ; @ ; @ ; @ @ @ @ @ @ ; @ @ @ ; ; @ @ @ @ @ ; @ @ @ @ @ ; @ @ +X+X+X+X+X+X+X+X",
"+X+X+X+X+X+X+X+X+ . + + + + + + + + + + + + + + + + + + + + + + + + + + + + + + + + + + + + + + + + + + + + + + +X+X+X+X+X+X+X+X",
"+X+X+X+X+X+X+X+X+ . o + . o o o o o o o . + o o . + o . o o o o o . o o o o o . o o . o o . o o . + . . + . . + +X+X+X+X+X+X+X+X"
};
